<svg width="200" height="200" viewBox="0 0 200 200" fill="none" xmlns="http://www.w3.org/2000/svg">
<g id="Group 8">
<rect id="Rectangle" x="100" y="121" width="100" height="100" transform="rotate(-180 100 121)" fill="#2C6269"/>
<path id="Combined Shape Copy" fill-rule="evenodd" clip-rule="evenodd" d="M100 221C155.228 221 200 176.228 200 121C200 65.7715 155.228 21 100 21C44.7715 21 0 65.7715 0 121C0 176.228 44.7715 221 100 221ZM100 154C118.225 154 133 139.225 133 121C133 102.775 118.225 88 100 88C81.7746 88 67 102.775 67 121C67 139.225 81.7746 154 100 154Z" fill="#004047"/>
<path id="Combined Shape" fill-rule="evenodd" clip-rule="evenodd" d="M100 77H0V81H100V77ZM100 85H0V89H100V85ZM0 93H100V97H0V93ZM100 101H0V105H100V101ZM0 109H100V113H0V109ZM100 117H0V121H100V117Z" fill="#F67E7E"/>
<path id="Combined Shape_2" fill-rule="evenodd" clip-rule="evenodd" d="M0 -23H4V-19H0V-23ZM11 -23H7V-19H11V-23ZM11 -15H7V-11H11V-15ZM7 -7H11V-3H7V-7ZM11 1H7V5H11V1ZM7 9H11V13H7V9ZM11 17H7V21H11V17ZM14 -23H18V-19H14V-23ZM14 -15H18V-11H14V-15ZM18 -7H14V-3H18V-7ZM14 1H18V5H14V1ZM18 9H14V13H18V9ZM14 17H18V21H14V17ZM0 -15H4V-11H0V-15ZM21 -23H25V-19H21V-23ZM21 -15H25V-11H21V-15ZM25 -7H21V-3H25V-7ZM21 1H25V5H21V1ZM25 9H21V13H25V9ZM21 17H25V21H21V17ZM0 -7H4V-3H0V-7ZM28 -23H32V-19H28V-23ZM28 -15H32V-11H28V-15ZM32 -7H28V-3H32V-7ZM28 1H32V5H28V1ZM32 9H28V13H32V9ZM28 17H32V21H28V17ZM0 1H4V5H0V1ZM35 -23H39V-19H35V-23ZM35 -15H39V-11H35V-15ZM39 -7H35V-3H39V-7ZM35 1H39V5H35V1ZM39 9H35V13H39V9ZM35 17H39V21H35V17ZM0 9H4V13H0V9ZM42 -23H46V-19H42V-23ZM42 -15H46V-11H42V-15ZM46 -7H42V-3H46V-7ZM42 1H46V5H42V1ZM46 9H42V13H46V9ZM42 17H46V21H42V17ZM0 17H4V21H0V17ZM49 -23H53V-19H49V-23ZM49 -15H53V-11H49V-15ZM53 -7H49V-3H53V-7ZM49 1H53V5H49V1ZM53 9H49V13H53V9ZM49 17H53V21H49V17Z" fill="#79C8C7"/>
</g>
</svg>
